<svg width="95" height="101" viewBox="0 0 95 101" fill="none" xmlns="http://www.w3.org/2000/svg">
<path d="M47.66 90.7076C57.6357 90.7076 67.2028 86.5057 74.2566 79.0261C81.3105 71.5466 85.2733 61.4022 85.2733 50.8246C85.2733 40.2469 81.3105 30.1025 74.2566 22.623C67.2028 15.1435 57.6357 10.9415 47.66 10.9415C37.6843 10.9415 28.1172 15.1435 21.0633 22.623C14.0095 30.1025 10.0466 40.2469 10.0466 50.8246C10.0466 61.4022 14.0095 71.5466 21.0633 79.0261C28.1172 86.5057 37.6843 90.7076 47.66 90.7076ZM47.66 0.970764C53.8343 0.970764 59.9482 2.26027 65.6525 4.76566C71.3568 7.27105 76.5399 10.9433 80.9058 15.5726C85.2717 20.202 88.7349 25.6978 91.0977 31.7463C93.4605 37.7949 94.6766 44.2777 94.6767 50.8246C94.6766 64.0466 89.7231 76.7271 80.9058 86.0765C72.0884 95.4259 60.1296 100.678 47.66 100.678C21.6598 100.678 0.643311 78.2442 0.643311 50.8246C0.643311 37.6025 5.59684 24.922 14.4142 15.5726C23.2315 6.2232 35.1904 0.970764 47.66 0.970764ZM50.0108 25.8977V52.0709L71.1683 65.3819L67.6421 71.5139L42.9583 55.8099V25.8977H50.0108Z" fill="#333333"/>
</svg>
