<svg width="147" height="120" viewBox="0 0 147 120" fill="none" xmlns="http://www.w3.org/2000/svg">
<g clip-path="url(#clip0_264_266)">
<path d="M69.752 78.7162L112.613 56.2162L69.752 33.7162V78.7162ZM60.5676 106.216V96.2162H36.0758C32.7081 96.2162 29.8263 95.2379 27.4302 93.2812C25.034 91.3245 23.8339 88.9695 23.8299 86.2162V26.2162C23.8299 23.4662 25.03 21.1129 27.4302 19.1562C29.8304 17.1996 32.7122 16.2196 36.0758 16.2162H134.043C137.411 16.2162 140.295 17.1962 142.695 19.1562C145.095 21.1162 146.293 23.4695 146.289 26.2162V86.2162C146.289 88.9662 145.091 91.3212 142.695 93.2812C140.299 95.2412 137.415 96.2195 134.043 96.2162H109.551V106.216H60.5676ZM36.0758 86.2162H134.043V26.2162H36.0758V86.2162Z" fill="#333333"/>
</g>
<defs>
<clipPath id="clip0_264_266">
<rect width="146.951" height="120" fill="white"/>
</clipPath>
</defs>
</svg>
