<svg width="124" height="108" viewBox="0 0 124 108" fill="none" xmlns="http://www.w3.org/2000/svg">
<path d="M79.0922 14.1055L55.7426 27.1247L58.1094 28.2504L78.883 16.6672L114.119 34.0047L93.908 45.2736L94.8925 45.7417V47.1701L110.723 38.3433L114.045 39.9782L94.8923 50.6572V53.1025L110.413 44.4486L114.045 46.2362L94.8923 56.9152V59.3606L110.413 50.7066L114.045 52.4943L94.8923 63.1732V65.6186L118.913 52.2248L112.951 49.2915L118.913 45.9672L112.951 43.0335L118.913 39.7091L113.261 36.9279L118.986 33.7354L79.0922 14.1055ZM86.5523 23.438C81.5005 25.6399 74.7715 26.0124 70.0338 24.3522L60.7719 29.5164L91.2452 44.0074L100.03 39.1096C96.5694 36.7367 96.8575 33.196 100.736 30.4175L86.5523 23.438ZM55.1937 31.1443L38.2194 40.7592L70.7834 57.0433L71.1028 56.866C71.7031 56.5301 72.5508 56.0546 73.5622 55.4865C75.5841 54.3512 78.2599 52.8458 80.928 51.3439C84.7706 49.1808 86.7507 48.0648 88.592 47.0272L55.1937 31.1443ZM82.9208 31.3883H82.9216C83.6895 31.3924 84.3936 31.5354 84.9194 31.794C85.2255 31.9446 85.4628 32.1302 85.6179 32.3405C85.7731 32.5507 85.8429 32.7813 85.8235 33.0193C85.8041 33.2572 85.6958 33.4977 85.5049 33.727C85.3139 33.9564 85.044 34.1701 84.7105 34.356C84.3772 34.5419 83.9868 34.6963 83.5617 34.8104C83.1367 34.9245 82.6852 34.9961 82.2332 35.0211C81.7811 35.0461 81.3373 35.024 80.9271 34.956C80.5169 34.8881 80.1483 34.7756 79.8424 34.6251C79.2246 34.3211 78.8995 33.8804 78.9387 33.4C78.9779 32.9197 79.3781 32.4389 80.0513 32.0635C80.4336 31.8503 80.8902 31.6788 81.3871 31.5619C81.884 31.445 82.4083 31.3857 82.9208 31.3883ZM30.4709 41.2162L5.15992 55.3286L10.8119 58.1098L5.08669 61.3024L11.0486 64.2358L5.08669 67.5604L11.0486 70.4938L5.08669 73.8184L44.9807 93.4484L69.0668 80.0178V77.5731L45.1899 90.8864L9.95461 73.5487L13.3777 71.6401L44.9807 87.1901L69.0668 73.76V71.3153L45.1899 84.6286L9.95461 67.2909L13.3777 65.3822L44.9807 80.9323L69.0668 67.5022V65.0575L45.1899 78.3708L9.95461 61.0331L13.1411 59.2558L45.0545 74.9588L69.0668 61.5696V60.5162L67.7508 59.8583L45.2626 72.3969L10.0283 55.0593L32.7831 42.3718L30.4706 41.2156L30.4709 41.2162ZM35.3839 43.6735L24.117 49.9553C27.5773 52.3278 27.2891 55.8685 23.4105 58.6474L37.5946 65.6269C42.6462 63.4248 49.3746 63.0525 54.1124 64.7125L65.15 58.5581L35.3834 43.6732L35.3839 43.6735ZM90.5699 50.3881C88.6383 51.4763 86.9349 52.4369 83.2789 54.4949C80.8231 55.8778 78.3666 57.2596 75.9093 58.6403C74.8966 59.2087 74.0471 59.6853 73.4412 60.0237C73.4196 60.0362 73.4107 60.0404 73.3896 60.0523V77.9755L90.5702 67.9446L90.5699 50.3881ZM42.3062 54.0343C43.0742 54.0385 43.7784 54.1816 44.304 54.4405C44.9218 54.7445 45.2469 55.1851 45.2077 55.6655C45.1686 56.1459 44.7683 56.6266 44.0951 57.002C43.4219 57.3773 42.5309 57.6164 41.6182 57.6669C40.7054 57.7174 39.8455 57.575 39.2277 57.2711C38.6099 56.9671 38.2848 56.5264 38.324 56.046C38.3632 55.5657 38.7634 55.0849 39.4366 54.7095C39.8189 54.4963 40.2756 54.3249 40.7725 54.208C41.2694 54.0912 41.7936 54.0318 42.3062 54.0345V54.0343Z" fill="#4ECB71"/>
</svg>
