<svg width="108" height="94" viewBox="0 0 108 94" fill="none" xmlns="http://www.w3.org/2000/svg">
<path d="M14.2434 23.9485C14.2434 23.9485 8.86989 24.3176 8.15342 25.3669C7.42862 26.4163 7.38696 28.0301 7.38696 29.8032C7.38696 31.5835 7.30365 35.6651 7.30365 35.6651L8.58663 38.0605C8.58663 38.0605 8.82823 68.5931 8.82823 69.5412C8.82823 70.482 8.82823 71.6326 10.3945 72.3636C11.9607 73.0945 51.7665 89.7974 53.0078 90.246C54.8823 90.9191 55.7737 90.6658 55.7737 90.6658L100.003 26.409C100.003 26.409 99.8616 24.6505 98.0204 24.2307C96.9624 23.9991 14.2434 23.9485 14.2434 23.9485Z" fill="#F5B03E"/>
<path d="M55.2989 45.073C54.6241 46.6868 54.9323 63.3752 55.0489 75.5115C55.1656 87.6406 54.6907 90.1518 55.0489 90.5716C55.4072 90.9913 56.3819 90.5861 59.1395 89.5222C64.2631 87.5538 88.873 76.9734 90.6808 76.0326C92.4887 75.0918 96.9041 73.1451 97.6289 72.0957C98.3537 71.0463 98.7453 61.2837 98.9869 53.4461C99.2285 45.6013 99.4701 39.3268 99.4701 39.3268L100.553 36.5044C100.553 36.5044 100.32 28.8767 100.278 28.0372C100.203 26.6477 100.028 25.9313 99.62 26.105C99.0369 26.3438 94.1715 29.8103 81.2917 35.2525C73.2023 38.6611 55.7654 43.9585 55.2989 45.073Z" fill="#E07F14"/>
<path d="M55.4155 9.09832C51.8081 8.95358 41.9358 13.9109 32.4218 16.6247C22.9077 19.3386 8.545 24.7952 8.42004 25.1137C8.3034 25.4248 14.2018 27.719 17.9674 29.2894C22.4412 31.1493 39.5198 38.1763 42.644 39.327C45.7765 40.4777 53.2411 43.1698 54.4408 43.0902C56.1236 42.9889 72.0193 37.5467 80.0837 34.2032C88.1482 30.8598 98.2288 25.6781 98.3621 24.4189C98.4204 23.8544 83.5328 19.0274 76.1098 16.1109C61.7804 10.4733 58.0564 9.20687 55.4155 9.09832Z" fill="#FDD717"/>
<path d="M7.34533 37.0039C7.4703 38.3645 8.3284 38.8494 10.5111 39.6744C12.6939 40.4994 53.9576 59.12 54.9073 59.12C55.857 59.12 56.1403 56.1673 55.0989 56.247C54.5324 56.2904 40.9778 50.6962 28.3146 45.1093C17.5675 40.3764 7.27869 35.6506 7.27869 35.6506L7.34533 37.0039Z" fill="#E37D14"/>
<path d="M100.561 36.4395C100.561 36.4395 56.4985 55.9068 56.0653 56.095C55.6321 56.2831 54.9406 56.218 54.9406 56.218L54.9073 59.12C54.9073 59.12 55.3155 59.1996 55.7737 59.0766C56.0403 59.0042 99.2868 39.5586 99.4784 39.5007C99.67 39.4428 100.503 39.0086 100.678 38.0895C100.828 37.3513 100.561 36.4395 100.561 36.4395Z" fill="#BA5E0D"/>
<path d="M24.6239 71.4878L33.2466 82.6327L37.0205 83.7544C37.0205 83.7544 37.3288 71.5964 37.4537 62.5864C37.6287 49.4224 37.562 37.4163 37.7786 36.7361C38.1369 35.5854 54.9073 30.8597 54.9073 30.8597C54.9073 30.8597 73.8521 36.0196 74.4519 37.1703C74.7185 37.6769 74.5102 46.202 74.4519 56.1383C74.3769 68.6871 74.4019 83.1755 74.4019 83.1755C74.4019 83.1755 76.3597 83.1682 76.593 82.5386C76.8346 81.909 77.801 77.053 77.801 77.053L85.149 34.5071L88.8813 30.3241L83.6994 21.7556L62.4386 12.666L55.1322 14.0917L47.2261 13.0423L22.1496 28.6958L25.0738 33.8485L32.2468 37.0255L24.6239 71.4878Z" fill="#AF0F1B"/>
<path d="M76.6263 36.7287C76.1681 37.6044 76.4347 82.7267 76.4347 82.7267C76.4347 82.7267 78.7258 81.6267 81.6749 80.3964C84.6075 79.1734 86.7152 78.4135 86.8985 77.7766C87.0818 77.1398 87.4067 32.5168 87.4067 32.5168L76.6263 36.7287Z" fill="#DC0D28"/>
<path d="M35.0294 35.7954C35.3043 36.0559 34.8544 82.8789 34.2963 82.9874C33.8547 83.0815 23.8158 79.188 23.8158 78.79C23.8158 78.392 24.6239 33.646 24.6239 33.646C24.6239 33.646 34.2129 34.9993 35.0294 35.7954ZM54.9239 11.2983C52.1497 11.2983 49.0839 11.9858 48.1925 14.005C47.301 16.0241 47.1011 19.0274 47.1011 21.2708C47.1011 23.4202 46.7012 28.9203 54.3241 28.8334C61.947 28.7466 62.172 26.2933 62.2886 20.88C62.3886 16.3642 61.6971 14.1714 61.0056 13.2306C60.3891 12.3839 58.3397 11.2983 54.9239 11.2983Z" fill="#FF2A23"/>
<path d="M50.5168 22.472C52.2497 22.5589 52.9911 19.2516 54.3241 17.4423C55.6571 15.6403 57.0483 14.4318 56.5485 13.491C56.1403 12.7094 52.5163 12.4561 50.5585 14.8226C49.1838 16.4943 48.9422 22.3924 50.5168 22.472Z" fill="#FCC9D2"/>
<path d="M61.6721 12.8687C61.6721 12.8687 64.1298 15.0398 64.7713 19.2951C65.4128 23.5505 64.6713 26.8577 64.6713 26.8577C64.6713 26.8577 76.8846 26.5393 81.1001 27.2413C85.2573 27.9433 86.7069 29.5354 86.7069 30.6933C86.7069 31.8512 83.9743 32.7848 81.2001 32.6111C78.4259 32.4374 76.5514 32.3071 76.2015 32.915C75.8516 33.523 76.3514 34.4638 80.2087 34.717C84.066 34.9776 88.5231 34.4999 89.906 30.3315C91.289 26.163 91.339 18.9405 90.8475 13.7372C90.3559 8.53382 89.2729 5.55943 86.5903 4.43047C83.7661 3.25085 76.693 3.05545 70.0115 6.31931C63.33 9.58317 61.6721 12.8687 61.6721 12.8687Z" fill="#FF2A23"/>
<path d="M75.51 7.9185C74.6436 6.94875 71.8527 6.9777 70.3614 8.47574C68.7785 10.0679 68.4286 16.1252 70.4614 16.4726C72.7607 16.8634 72.3442 13.5923 74.0271 11.5732C75.6766 9.59747 76.3514 8.86654 75.51 7.9185Z" fill="#FCC9D2"/>
<path d="M47.5509 13.0786C47.5509 13.0786 38.1952 3.60544 27.5064 3.75018C21.0749 3.83702 19.442 7.05746 19.0921 8.38905C18.7422 9.72065 16.0762 22.9642 19.6336 30.136C23.191 37.3079 30.5723 35.448 31.7303 35.2164C33.2132 34.9124 36.3707 33.9716 36.0708 32.9802C35.7708 31.9887 25.282 35.5565 25.1821 31.4749C25.0821 27.3933 32.605 26.959 36.0708 26.8722C39.5365 26.7853 45.4765 27.4729 45.4765 27.4729C45.4765 27.4729 44.4351 22.53 45.1266 19.0056C45.8181 15.4813 47.5509 13.0786 47.5509 13.0786Z" fill="#FF2A23"/>
<path d="M24.6406 7.18775C23.3076 8.38908 22.7578 15.3148 23.5992 18.7524C24.4406 22.1899 25.1821 23.6518 26.915 23.3551C28.3646 23.1018 29.2393 16.3569 29.9308 13.9832C30.6723 11.4503 32.5051 8.75817 31.7636 7.57855C30.6306 5.76931 26.0319 5.93576 24.6406 7.18775Z" fill="#FCC9D2"/>
</svg>
