<svg width="118" height="94" viewBox="0 0 118 94" fill="none" xmlns="http://www.w3.org/2000/svg">
<path d="M31.7659 59.1057H85.3783V82.367H31.7659V59.1057Z" fill="#BF360C"/>
<path d="M24.4551 59.1059C29.8386 59.1059 34.2028 55.6344 34.2028 51.3521C34.2028 47.0699 29.8386 43.5984 24.4551 43.5984C19.0716 43.5984 14.7074 47.0699 14.7074 51.3521C14.7074 55.6344 19.0716 59.1059 24.4551 59.1059Z" fill="#FFA726"/>
<path d="M92.689 59.1059C98.0725 59.1059 102.437 55.6344 102.437 51.3521C102.437 47.0699 98.0725 43.5984 92.689 43.5984C87.3055 43.5984 82.9413 47.0699 82.9413 51.3521C82.9413 55.6344 87.3055 59.1059 92.689 59.1059Z" fill="#FFA726"/>
<path d="M95.126 37.783C95.126 13.1648 22.0182 21.694 22.0182 37.783V57.1674C22.0182 73.2564 38.3456 86.2439 58.5721 86.2439C78.7986 86.2439 95.126 73.2564 95.126 57.1674V37.783Z" fill="#FFB74D"/>
<path d="M73.1936 55.2289C75.8854 55.2289 78.0675 53.4931 78.0675 51.352C78.0675 49.2108 75.8854 47.4751 73.1936 47.4751C70.5019 47.4751 68.3198 49.2108 68.3198 51.352C68.3198 53.4931 70.5019 55.2289 73.1936 55.2289Z" fill="#784719"/>
<path d="M43.9505 55.2289C46.6423 55.2289 48.8244 53.4931 48.8244 51.352C48.8244 49.2108 46.6423 47.4751 43.9505 47.4751C41.2588 47.4751 39.0767 49.2108 39.0767 51.352C39.0767 53.4931 41.2588 55.2289 43.9505 55.2289Z" fill="#784719"/>
<path d="M58.5721 4.82959C37.8582 4.82959 7.39661 16.0725 7.39661 69.9611L31.7659 82.3671V47.4752L72.7062 28.4785L85.3783 41.6599V82.3671L109.748 66.4719C109.748 55.6167 107.554 10.2572 72.2189 10.2572L68.8072 4.82959H58.5721Z" fill="#FF5722"/>
<path d="M109.748 47.4752C108.285 47.4752 107.311 48.2506 107.311 49.4137V35.8446C107.311 18.7863 89.7647 4.82959 68.3198 4.82959H46.3874C44.9253 4.82959 43.9505 5.60497 43.9505 6.76803C43.9505 7.93109 44.9253 8.70647 46.3874 8.70647H68.3198C87.0841 8.70647 102.437 20.9186 102.437 35.8446V55.229C102.437 56.3921 103.412 57.1674 104.874 57.1674C106.336 57.1674 107.311 56.3921 107.311 55.229V59.1059C107.311 66.6658 99.7561 72.6749 90.2521 72.6749H58.5721C57.1099 72.6749 56.1351 73.4503 56.1351 74.6134C56.1351 75.7764 57.1099 76.5518 58.5721 76.5518H90.2521C102.437 76.5518 112.184 68.7981 112.184 59.1059V49.4137C112.184 48.2506 111.21 47.4752 109.748 47.4752Z" fill="#757575"/>
<path d="M109.748 43.5984H107.311C104.63 43.5984 102.437 45.343 102.437 47.4753V55.229C102.437 57.3613 104.63 59.1059 107.311 59.1059H109.748C112.428 59.1059 114.621 57.3613 114.621 55.229V47.4753C114.621 45.343 112.428 43.5984 109.748 43.5984Z" fill="#37474F"/>
<path d="M58.5721 78.4903C61.2638 78.4903 63.4459 76.7546 63.4459 74.6134C63.4459 72.4723 61.2638 70.7366 58.5721 70.7366C55.8803 70.7366 53.6982 72.4723 53.6982 74.6134C53.6982 76.7546 55.8803 78.4903 58.5721 78.4903Z" fill="#37474F"/>
</svg>
